<mxfile host="65bd71144e" modified="2021-02-24T16:53:05.117Z" agent="5.0 (X11; Linux x86_64) AppleWebKit/537.36 (KHTML, like Gecko) Code/1.52.1 Chrome/83.0.4103.122 Electron/9.3.5 Safari/537.36" etag="eyTzIZBM9UdPuK2yXI5f" version="14.2.4" type="embed">
    <diagram id="_QP45CJGmBJISH5dbIWF" name="Page-1">
        <mxGraphModel dx="925" dy="506" grid="1" gridSize="10" guides="1" tooltips="1" connect="1" arrows="1" fold="1" page="1" pageScale="1" pageWidth="850" pageHeight="1100" math="0" shadow="0">
            <root>
                <mxCell id="0"/>
                <mxCell id="1" parent="0"/>
                <mxCell id="2" value="ThemeTabsComponent" style="swimlane;fontStyle=1;align=center;verticalAlign=top;childLayout=stackLayout;horizontal=1;startSize=26;horizontalStack=0;resizeParent=1;resizeParentMax=0;resizeLast=0;collapsible=1;marginBottom=0;" parent="1" vertex="1">
                    <mxGeometry y="20" width="240" height="424" as="geometry"/>
                </mxCell>
                <mxCell id="3" value="- themes: themeModel" style="text;strokeColor=none;fillColor=none;align=left;verticalAlign=top;spacingLeft=4;spacingRight=4;overflow=hidden;rotatable=0;points=[[0,0.5],[1,0.5]];portConstraint=eastwest;" parent="2" vertex="1">
                    <mxGeometry y="26" width="240" height="26" as="geometry"/>
                </mxCell>
                <mxCell id="14" value="- selectedPageIndex" style="text;strokeColor=none;fillColor=none;align=left;verticalAlign=top;spacingLeft=4;spacingRight=4;overflow=hidden;rotatable=0;points=[[0,0.5],[1,0.5]];portConstraint=eastwest;" parent="2" vertex="1">
                    <mxGeometry y="52" width="240" height="26" as="geometry"/>
                </mxCell>
                <mxCell id="17" value="- selectedThemeIndex" style="text;strokeColor=none;fillColor=none;align=left;verticalAlign=top;spacingLeft=4;spacingRight=4;overflow=hidden;rotatable=0;points=[[0,0.5],[1,0.5]];portConstraint=eastwest;" parent="2" vertex="1">
                    <mxGeometry y="78" width="240" height="26" as="geometry"/>
                </mxCell>
                <mxCell id="15" value="- selectedTheme: {}" style="text;strokeColor=none;fillColor=none;align=left;verticalAlign=top;spacingLeft=4;spacingRight=4;overflow=hidden;rotatable=0;points=[[0,0.5],[1,0.5]];portConstraint=eastwest;" parent="2" vertex="1">
                    <mxGeometry y="104" width="240" height="26" as="geometry"/>
                </mxCell>
                <mxCell id="16" value="- selectedPage: {}" style="text;strokeColor=none;fillColor=none;align=left;verticalAlign=top;spacingLeft=4;spacingRight=4;overflow=hidden;rotatable=0;points=[[0,0.5],[1,0.5]];portConstraint=eastwest;" parent="2" vertex="1">
                    <mxGeometry y="130" width="240" height="26" as="geometry"/>
                </mxCell>
                <mxCell id="23" value="- changeNameDialog: ChangeNameDialog" style="text;strokeColor=none;fillColor=none;align=left;verticalAlign=top;spacingLeft=4;spacingRight=4;overflow=hidden;rotatable=0;points=[[0,0.5],[1,0.5]];portConstraint=eastwest;" parent="2" vertex="1">
                    <mxGeometry y="156" width="240" height="26" as="geometry"/>
                </mxCell>
                <mxCell id="22" value="- graphEditorService: GraphEditorService" style="text;strokeColor=none;fillColor=none;align=left;verticalAlign=top;spacingLeft=4;spacingRight=4;overflow=hidden;rotatable=0;points=[[0,0.5],[1,0.5]];portConstraint=eastwest;" parent="2" vertex="1">
                    <mxGeometry y="182" width="240" height="26" as="geometry"/>
                </mxCell>
                <mxCell id="4" value="" style="line;strokeWidth=1;fillColor=none;align=left;verticalAlign=middle;spacingTop=-1;spacingLeft=3;spacingRight=3;rotatable=0;labelPosition=right;points=[];portConstraint=eastwest;" parent="2" vertex="1">
                    <mxGeometry y="208" width="240" height="8" as="geometry"/>
                </mxCell>
                <mxCell id="5" value="+ changeTheme(targetIndex)" style="text;strokeColor=none;fillColor=none;align=left;verticalAlign=top;spacingLeft=4;spacingRight=4;overflow=hidden;rotatable=0;points=[[0,0.5],[1,0.5]];portConstraint=eastwest;" parent="2" vertex="1">
                    <mxGeometry y="216" width="240" height="26" as="geometry"/>
                </mxCell>
                <mxCell id="24" value="+ changePage(targetIndex)" style="text;strokeColor=none;fillColor=none;align=left;verticalAlign=top;spacingLeft=4;spacingRight=4;overflow=hidden;rotatable=0;points=[[0,0.5],[1,0.5]];portConstraint=eastwest;" parent="2" vertex="1">
                    <mxGeometry y="242" width="240" height="26" as="geometry"/>
                </mxCell>
                <mxCell id="25" value="+ addTheme()" style="text;strokeColor=none;fillColor=none;align=left;verticalAlign=top;spacingLeft=4;spacingRight=4;overflow=hidden;rotatable=0;points=[[0,0.5],[1,0.5]];portConstraint=eastwest;" parent="2" vertex="1">
                    <mxGeometry y="268" width="240" height="26" as="geometry"/>
                </mxCell>
                <mxCell id="26" value="+ addPage()" style="text;strokeColor=none;fillColor=none;align=left;verticalAlign=top;spacingLeft=4;spacingRight=4;overflow=hidden;rotatable=0;points=[[0,0.5],[1,0.5]];portConstraint=eastwest;" parent="2" vertex="1">
                    <mxGeometry y="294" width="240" height="26" as="geometry"/>
                </mxCell>
                <mxCell id="27" value="+ closeTheme()" style="text;strokeColor=none;fillColor=none;align=left;verticalAlign=top;spacingLeft=4;spacingRight=4;overflow=hidden;rotatable=0;points=[[0,0.5],[1,0.5]];portConstraint=eastwest;" parent="2" vertex="1">
                    <mxGeometry y="320" width="240" height="26" as="geometry"/>
                </mxCell>
                <mxCell id="28" value="+ closePage()" style="text;strokeColor=none;fillColor=none;align=left;verticalAlign=top;spacingLeft=4;spacingRight=4;overflow=hidden;rotatable=0;points=[[0,0.5],[1,0.5]];portConstraint=eastwest;" parent="2" vertex="1">
                    <mxGeometry y="346" width="240" height="26" as="geometry"/>
                </mxCell>
                <mxCell id="29" value="+ renameTheme()" style="text;strokeColor=none;fillColor=none;align=left;verticalAlign=top;spacingLeft=4;spacingRight=4;overflow=hidden;rotatable=0;points=[[0,0.5],[1,0.5]];portConstraint=eastwest;" parent="2" vertex="1">
                    <mxGeometry y="372" width="240" height="26" as="geometry"/>
                </mxCell>
                <mxCell id="30" value="+ renamePage()" style="text;strokeColor=none;fillColor=none;align=left;verticalAlign=top;spacingLeft=4;spacingRight=4;overflow=hidden;rotatable=0;points=[[0,0.5],[1,0.5]];portConstraint=eastwest;" parent="2" vertex="1">
                    <mxGeometry y="398" width="240" height="26" as="geometry"/>
                </mxCell>
                <mxCell id="6" value="ChangeNameDialog" style="swimlane;fontStyle=1;align=center;verticalAlign=top;childLayout=stackLayout;horizontal=1;startSize=26;horizontalStack=0;resizeParent=1;resizeParentMax=0;resizeLast=0;collapsible=1;marginBottom=0;" parent="1" vertex="1">
                    <mxGeometry x="270" y="530" width="170" height="190" as="geometry"/>
                </mxCell>
                <mxCell id="7" value="- currentType: string" style="text;strokeColor=none;fillColor=none;align=left;verticalAlign=top;spacingLeft=4;spacingRight=4;overflow=hidden;rotatable=0;points=[[0,0.5],[1,0.5]];portConstraint=eastwest;" parent="6" vertex="1">
                    <mxGeometry y="26" width="170" height="26" as="geometry"/>
                </mxCell>
                <mxCell id="10" value="- currentPageName: string" style="text;strokeColor=none;fillColor=none;align=left;verticalAlign=top;spacingLeft=4;spacingRight=4;overflow=hidden;rotatable=0;points=[[0,0.5],[1,0.5]];portConstraint=eastwest;" parent="6" vertex="1">
                    <mxGeometry y="52" width="170" height="26" as="geometry"/>
                </mxCell>
                <mxCell id="11" value="- currentThemeName: string" style="text;strokeColor=none;fillColor=none;align=left;verticalAlign=top;spacingLeft=4;spacingRight=4;overflow=hidden;rotatable=0;points=[[0,0.5],[1,0.5]];portConstraint=eastwest;" parent="6" vertex="1">
                    <mxGeometry y="78" width="170" height="26" as="geometry"/>
                </mxCell>
                <mxCell id="12" value="- originalName: string" style="text;strokeColor=none;fillColor=none;align=left;verticalAlign=top;spacingLeft=4;spacingRight=4;overflow=hidden;rotatable=0;points=[[0,0.5],[1,0.5]];portConstraint=eastwest;" parent="6" vertex="1">
                    <mxGeometry y="104" width="170" height="26" as="geometry"/>
                </mxCell>
                <mxCell id="8" value="" style="line;strokeWidth=1;fillColor=none;align=left;verticalAlign=middle;spacingTop=-1;spacingLeft=3;spacingRight=3;rotatable=0;labelPosition=right;points=[];portConstraint=eastwest;" parent="6" vertex="1">
                    <mxGeometry y="130" width="170" height="8" as="geometry"/>
                </mxCell>
                <mxCell id="9" value="+ confirm()" style="text;strokeColor=none;fillColor=none;align=left;verticalAlign=top;spacingLeft=4;spacingRight=4;overflow=hidden;rotatable=0;points=[[0,0.5],[1,0.5]];portConstraint=eastwest;" parent="6" vertex="1">
                    <mxGeometry y="138" width="170" height="26" as="geometry"/>
                </mxCell>
                <mxCell id="13" value="+ cancel()" style="text;strokeColor=none;fillColor=none;align=left;verticalAlign=top;spacingLeft=4;spacingRight=4;overflow=hidden;rotatable=0;points=[[0,0.5],[1,0.5]];portConstraint=eastwest;" parent="6" vertex="1">
                    <mxGeometry y="164" width="170" height="26" as="geometry"/>
                </mxCell>
                <mxCell id="18" value="GraphEditorService" style="swimlane;fontStyle=1;align=center;verticalAlign=top;childLayout=stackLayout;horizontal=1;startSize=26;horizontalStack=0;resizeParent=1;resizeParentMax=0;resizeLast=0;collapsible=1;marginBottom=0;" parent="1" vertex="1">
                    <mxGeometry x="390" y="250" width="320" height="242" as="geometry"/>
                </mxCell>
                <mxCell id="19" value="- selectedPageId: string" style="text;strokeColor=none;fillColor=none;align=left;verticalAlign=top;spacingLeft=4;spacingRight=4;overflow=hidden;rotatable=0;points=[[0,0.5],[1,0.5]];portConstraint=eastwest;" parent="18" vertex="1">
                    <mxGeometry y="26" width="320" height="26" as="geometry"/>
                </mxCell>
                <mxCell id="34" value="- editor: SelabEditor" style="text;strokeColor=none;fillColor=none;align=left;verticalAlign=top;spacingLeft=4;spacingRight=4;overflow=hidden;rotatable=0;points=[[0,0.5],[1,0.5]];portConstraint=eastwest;" vertex="1" parent="18">
                    <mxGeometry y="52" width="320" height="26" as="geometry"/>
                </mxCell>
                <mxCell id="36" value="- inNavigation: boolean" style="text;strokeColor=none;fillColor=none;align=left;verticalAlign=top;spacingLeft=4;spacingRight=4;overflow=hidden;rotatable=0;points=[[0,0.5],[1,0.5]];portConstraint=eastwest;" vertex="1" parent="18">
                    <mxGeometry y="78" width="320" height="26" as="geometry"/>
                </mxCell>
                <mxCell id="20" value="" style="line;strokeWidth=1;fillColor=none;align=left;verticalAlign=middle;spacingTop=-1;spacingLeft=3;spacingRight=3;rotatable=0;labelPosition=right;points=[];portConstraint=eastwest;" parent="18" vertex="1">
                    <mxGeometry y="104" width="320" height="8" as="geometry"/>
                </mxCell>
                <mxCell id="21" value="+ changePage(sourcePageId: string, targetPageId: string)" style="text;strokeColor=none;fillColor=none;align=left;verticalAlign=top;spacingLeft=4;spacingRight=4;overflow=hidden;rotatable=0;points=[[0,0.5],[1,0.5]];portConstraint=eastwest;" parent="18" vertex="1">
                    <mxGeometry y="112" width="320" height="26" as="geometry"/>
                </mxCell>
                <mxCell id="37" value="+ renderPage(pageId: string)" style="text;strokeColor=none;fillColor=none;align=left;verticalAlign=top;spacingLeft=4;spacingRight=4;overflow=hidden;rotatable=0;points=[[0,0.5],[1,0.5]];portConstraint=eastwest;" vertex="1" parent="18">
                    <mxGeometry y="138" width="320" height="26" as="geometry"/>
                </mxCell>
                <mxCell id="39" value="+ syncWithIR()" style="text;strokeColor=none;fillColor=none;align=left;verticalAlign=top;spacingLeft=4;spacingRight=4;overflow=hidden;rotatable=0;points=[[0,0.5],[1,0.5]];portConstraint=eastwest;" vertex="1" parent="18">
                    <mxGeometry y="164" width="320" height="26" as="geometry"/>
                </mxCell>
                <mxCell id="33" value="+ cleanGraphEditor()" style="text;strokeColor=none;fillColor=none;align=left;verticalAlign=top;spacingLeft=4;spacingRight=4;overflow=hidden;rotatable=0;points=[[0,0.5],[1,0.5]];portConstraint=eastwest;" vertex="1" parent="18">
                    <mxGeometry y="190" width="320" height="26" as="geometry"/>
                </mxCell>
                <mxCell id="40" value="+ applyLayout()" style="text;strokeColor=none;fillColor=none;align=left;verticalAlign=top;spacingLeft=4;spacingRight=4;overflow=hidden;rotatable=0;points=[[0,0.5],[1,0.5]];portConstraint=eastwest;" vertex="1" parent="18">
                    <mxGeometry y="216" width="320" height="26" as="geometry"/>
                </mxCell>
                <mxCell id="31" value="Use" style="endArrow=open;endSize=12;dashed=1;html=1;exitX=1;exitY=0.5;exitDx=0;exitDy=0;entryX=0.5;entryY=0;entryDx=0;entryDy=0;fontStyle=0;noLabel=1;fontColor=none;" edge="1" parent="1" source="29" target="6">
                    <mxGeometry width="160" relative="1" as="geometry">
                        <mxPoint x="320" y="240" as="sourcePoint"/>
                        <mxPoint x="480" y="240" as="targetPoint"/>
                        <Array as="points">
                            <mxPoint x="355" y="405"/>
                        </Array>
                    </mxGeometry>
                </mxCell>
                <mxCell id="32" value="Use" style="endArrow=open;endSize=12;dashed=1;html=1;exitX=1.009;exitY=0.254;exitDx=0;exitDy=0;entryX=0.5;entryY=0;entryDx=0;entryDy=0;fontStyle=0;noLabel=1;fontColor=none;exitPerimeter=0;" edge="1" parent="1" source="30" target="6">
                    <mxGeometry width="160" relative="1" as="geometry">
                        <mxPoint x="250" y="415" as="sourcePoint"/>
                        <mxPoint x="365" y="540" as="targetPoint"/>
                        <Array as="points">
                            <mxPoint x="355" y="425"/>
                        </Array>
                    </mxGeometry>
                </mxCell>
                <mxCell id="41" value="" style="endArrow=open;endFill=1;endSize=12;html=1;fontColor=none;exitX=1;exitY=0.5;exitDx=0;exitDy=0;entryX=0.5;entryY=0;entryDx=0;entryDy=0;" edge="1" parent="1" source="22" target="18">
                    <mxGeometry width="160" relative="1" as="geometry">
                        <mxPoint x="320" y="360" as="sourcePoint"/>
                        <mxPoint x="480" y="360" as="targetPoint"/>
                        <Array as="points">
                            <mxPoint x="550" y="215"/>
                        </Array>
                    </mxGeometry>
                </mxCell>
                <mxCell id="50" value="" style="group" vertex="1" connectable="0" parent="1">
                    <mxGeometry x="740" y="210" width="440" height="300" as="geometry"/>
                </mxCell>
                <mxCell id="48" value="Note" style="shape=umlFrame;whiteSpace=wrap;html=1;fillColor=#FFFFFF;fontColor=none;" vertex="1" parent="50">
                    <mxGeometry width="440" height="300" as="geometry"/>
                </mxCell>
                <mxCell id="49" value="&lt;div style=&quot;text-align: left&quot;&gt;&lt;span&gt;changePage(sourcePageId, targetPageId) {&lt;/span&gt;&lt;/div&gt;&lt;div style=&quot;text-align: left&quot;&gt;&amp;nbsp; &amp;nbsp; &amp;nbsp; &amp;nbsp; this.syncWithIR();&lt;/div&gt;&lt;div style=&quot;text-align: left&quot;&gt;&amp;nbsp; &amp;nbsp; &amp;nbsp; &amp;nbsp; this.clearGraphEditor();&lt;/div&gt;&lt;div style=&quot;text-align: left&quot;&gt;&amp;nbsp; &amp;nbsp; &amp;nbsp; &amp;nbsp; this.renderPage(targetPageId);&lt;/div&gt;&lt;div style=&quot;text-align: left&quot;&gt;&lt;span&gt;}&lt;/span&gt;&lt;/div&gt;&lt;div style=&quot;text-align: left&quot;&gt;&lt;span&gt;&lt;br&gt;&lt;/span&gt;&lt;/div&gt;&lt;div style=&quot;text-align: left&quot;&gt;clearGraphEditor() {&lt;/div&gt;&lt;div style=&quot;text-align: left&quot;&gt;&amp;nbsp; &amp;nbsp; &amp;nbsp; this.getGraphModel().beginUpdate();&lt;/div&gt;&lt;div style=&quot;text-align: left&quot;&gt;&amp;nbsp; &amp;nbsp; &amp;nbsp; this.getGraph().removeCells();&lt;/div&gt;&lt;div style=&quot;text-align: left&quot;&gt;&amp;nbsp; &amp;nbsp; &amp;nbsp; this.getGraphModel().endUpdate();&lt;/div&gt;&lt;div style=&quot;text-align: left&quot;&gt;&amp;nbsp; &amp;nbsp; &amp;nbsp; this.getGraph().refresh();&lt;/div&gt;&lt;div style=&quot;text-align: left&quot;&gt;&lt;span&gt;}&lt;/span&gt;&lt;/div&gt;&lt;div style=&quot;text-align: left&quot;&gt;&lt;span&gt;&lt;br&gt;&lt;/span&gt;&lt;/div&gt;&lt;div style=&quot;text-align: left&quot;&gt;&lt;span&gt;syncWithIR() {&lt;/span&gt;&lt;/div&gt;&lt;div style=&quot;text-align: left&quot;&gt;&lt;span&gt;&amp;nbsp; &amp;nbsp; &amp;nbsp; &amp;nbsp;let cells = this.getGraphModel().cells;&lt;/span&gt;&lt;/div&gt;&lt;div style=&quot;text-align: left&quot;&gt;&lt;span&gt;&amp;nbsp; &amp;nbsp; &amp;nbsp; &amp;nbsp;this.store.dispatch(new IRSyncWithERAction(this.selectedPageId, cells))&lt;/span&gt;&lt;/div&gt;&lt;div style=&quot;text-align: left&quot;&gt;&lt;span&gt;}&lt;/span&gt;&lt;/div&gt;&lt;div style=&quot;text-align: left&quot;&gt;&lt;br&gt;&lt;/div&gt;" style="text;html=1;strokeColor=none;fillColor=none;align=center;verticalAlign=middle;whiteSpace=wrap;rounded=0;fontColor=none;" vertex="1" parent="50">
                    <mxGeometry x="10" y="50" width="420" height="240" as="geometry"/>
                </mxCell>
            </root>
        </mxGraphModel>
    </diagram>
</mxfile>